HIERARCHY
ROOT hips_JNT
{
    OFFSET 0 0 0
    CHANNELS 6 Xposition Yposition Zposition Zrotation Xrotation Yrotation
    JOINT spine_JNT
    {
        OFFSET -0.000424254 9.31981 2.54342
        CHANNELS 3 Zrotation Xrotation Yrotation
        JOINT spine1_JNT
        {
            OFFSET 0 10.8731 -4.54485e-05
            CHANNELS 3 Zrotation Xrotation Yrotation
            JOINT spine2_JNT
            {
                OFFSET 0 12.4264 -5.95116
                CHANNELS 3 Zrotation Xrotation Yrotation
                JOINT neck_JNT
                {
                    OFFSET 0 13.9797 -1.46048
                    CHANNELS 3 Zrotation Xrotation Yrotation
                    JOINT head_JNT
                    {
                        OFFSET 0 5.8702 2.0915
                        CHANNELS 3 Zrotation Xrotation Yrotation
                        End Site
                        {
                            OFFSET 0 0 0
                        }
                    }
                }
                JOINT l_shoulder_JNT
                {
                    OFFSET 4.39914 12.861 -1.48501
                    CHANNELS 3 Zrotation Xrotation Yrotation
                    JOINT l_arm_JNT
                    {
                        OFFSET 8.75735 -2.31198 -0.0490516
                        CHANNELS 3 Zrotation Xrotation Yrotation
                        JOINT l_forearm_JNT
                        {
                            OFFSET 26.9001 -4.76837e-05 1.2666e-05
                            CHANNELS 3 Zrotation Xrotation Yrotation
                            JOINT l_hand_JNT
                            {
                                OFFSET 23.0148 -4.76837e-05 -3.72529e-06
                                CHANNELS 3 Zrotation Xrotation Yrotation
                                JOINT l_handThumb1_JNT
                                {
                                    OFFSET 3.63 -0.779998 2.13
                                    CHANNELS 3 Zrotation Xrotation Yrotation
                                    JOINT l_handThumb2_JNT
                                    {
                                        OFFSET 3.55114 -2.11837 2.24006
                                        CHANNELS 3 Zrotation Xrotation Yrotation
                                        JOINT l_handThumb3_JNT
                                        {
                                            OFFSET 2.15911 -1.11631 0.963467
                                            CHANNELS 3 Zrotation Xrotation Yrotation
                                            End Site
                                            {
                                                OFFSET 0 0 0
                                            }
                                        }
                                    }
                                }
                                JOINT l_handIndex1_JNT
                                {
                                    OFFSET 10.5149 -0.0410199 2.19757
                                    CHANNELS 3 Zrotation Xrotation Yrotation
                                    JOINT l_handIndex2_JNT
                                    {
                                        OFFSET 2.75183 -0.102866 -0.139054
                                        CHANNELS 3 Zrotation Xrotation Yrotation
                                        JOINT l_handIndex3_JNT
                                        {
                                            OFFSET 2.35301 -0.0733972 -0.0904871
                                            CHANNELS 3 Zrotation Xrotation Yrotation
                                            End Site
                                            {
                                                OFFSET 0 0 0
                                            }
                                        }
                                    }
                                }
                                JOINT l_handMiddle1_JNT
                                {
                                    OFFSET 10.0671 0.139201 0.0595726
                                    CHANNELS 3 Zrotation Xrotation Yrotation
                                    JOINT l_handMiddle2_JNT
                                    {
                                        OFFSET 3.90903 -0.288403 -0.119066
                                        CHANNELS 3 Zrotation Xrotation Yrotation
                                        JOINT l_handMiddle3_JNT
                                        {
                                            OFFSET 2.3284 -0.0191092 -0.0594396
                                            CHANNELS 3 Zrotation Xrotation Yrotation
                                            End Site
                                            {
                                                OFFSET 0 0 0
                                            }
                                        }
                                    }
                                }
                                JOINT l_handRing1_JNT
                                {
                                    OFFSET 9.46811 0.132239 -1.80983
                                    CHANNELS 3 Zrotation Xrotation Yrotation
                                    JOINT l_handRing2_JNT
                                    {
                                        OFFSET 3.28153 -0.224054 -0.0339366
                                        CHANNELS 3 Zrotation Xrotation Yrotation
                                        JOINT l_handRing3_JNT
                                        {
                                            OFFSET 2.245 -0.0702143 -0.00838935
                                            CHANNELS 3 Zrotation Xrotation Yrotation
                                            End Site
                                            {
                                                OFFSET 0 0 0
                                            }
                                        }
                                    }
                                }
                                JOINT l_handPinky1_JNT
                                {
                                    OFFSET 8.49077 -0.0777721 -3.58415
                                    CHANNELS 3 Zrotation Xrotation Yrotation
                                    JOINT l_handPinky2_JNT
                                    {
                                        OFFSET 2.53217 -0.0730753 -0.0170402
                                        CHANNELS 3 Zrotation Xrotation Yrotation
                                        JOINT l_handPinky3_JNT
                                        {
                                            OFFSET 1.95121 0.0251174 0.0170089
                                            CHANNELS 3 Zrotation Xrotation Yrotation
                                            End Site
                                            {
                                                OFFSET 0 0 0
                                            }
                                        }
                                    }
                                }
                            }
                        }
                    }
                }
                JOINT r_shoulder_JNT
                {
                    OFFSET -4.39782 12.8606 -1.48501
                    CHANNELS 3 Zrotation Xrotation Yrotation
                    JOINT r_arm_JNT
                    {
                        OFFSET -8.75732 -2.312 -0.0490502
                        CHANNELS 3 Zrotation Xrotation Yrotation
                        JOINT r_forearm_JNT
                        {
                            OFFSET -26.9 0 1.00583e-05
                            CHANNELS 3 Zrotation Xrotation Yrotation
                            JOINT r_hand_JNT
                            {
                                OFFSET -23.0149 0 0
                                CHANNELS 3 Zrotation Xrotation Yrotation
                                JOINT r_handThumb1_JNT
                                {
                                    OFFSET -3.63 -0.779998 2.13
                                    CHANNELS 3 Zrotation Xrotation Yrotation
                                    JOINT r_handThumb2_JNT
                                    {
                                        OFFSET -3.5512 -2.118 2.24006
                                        CHANNELS 3 Zrotation Xrotation Yrotation
                                        JOINT r_handThumb3_JNT
                                        {
                                            OFFSET -2.1591 -1.116 0.963467
                                            CHANNELS 3 Zrotation Xrotation Yrotation
                                            End Site
                                            {
                                                OFFSET 0 0 0
                                            }
                                        }
                                    }
                                }
                                JOINT r_handIndex1_JNT
                                {
                                    OFFSET -10.5149 -0.0409961 2.19756
                                    CHANNELS 3 Zrotation Xrotation Yrotation
                                    JOINT r_handIndex2_JNT
                                    {
                                        OFFSET -2.7518 -0.102997 -0.13905
                                        CHANNELS 3 Zrotation Xrotation Yrotation
                                        JOINT r_handIndex3_JNT
                                        {
                                            OFFSET -2.353 -0.0730038 -0.0904899
                                            CHANNELS 3 Zrotation Xrotation Yrotation
                                            End Site
                                            {
                                                OFFSET 0 0 0
                                            }
                                        }
                                    }
                                }
                                JOINT r_handMiddle1_JNT
                                {
                                    OFFSET -10.0671 0.139999 0.05957
                                    CHANNELS 3 Zrotation Xrotation Yrotation
                                    JOINT r_handMiddle2_JNT
                                    {
                                        OFFSET -3.9091 -0.288999 -0.11907
                                        CHANNELS 3 Zrotation Xrotation Yrotation
                                        JOINT r_handMiddle3_JNT
                                        {
                                            OFFSET -2.3284 -0.019002 -0.05944
                                            CHANNELS 3 Zrotation Xrotation Yrotation
                                            End Site
                                            {
                                                OFFSET 0 0 0
                                            }
                                        }
                                    }
                                }
                                JOINT r_handRing1_JNT
                                {
                                    OFFSET -9.4681 0.133002 -1.80983
                                    CHANNELS 3 Zrotation Xrotation Yrotation
                                    JOINT r_handRing2_JNT
                                    {
                                        OFFSET -3.2816 -0.224996 -0.0339396
                                        CHANNELS 3 Zrotation Xrotation Yrotation
                                        JOINT r_handRing3_JNT
                                        {
                                            OFFSET -2.245 -0.0699997 -0.0083901
                                            CHANNELS 3 Zrotation Xrotation Yrotation
                                            End Site
                                            {
                                                OFFSET 0 0 0
                                            }
                                        }
                                    }
                                }
                                JOINT r_handPinky1_JNT
                                {
                                    OFFSET -8.4908 -0.0769973 -3.58415
                                    CHANNELS 3 Zrotation Xrotation Yrotation
                                    JOINT r_handPinky2_JNT
                                    {
                                        OFFSET -2.5322 -0.0740051 -0.0170402
                                        CHANNELS 3 Zrotation Xrotation Yrotation
                                        JOINT r_handPinky3_JNT
                                        {
                                            OFFSET -1.9512 0.0259995 0.0170097
                                            CHANNELS 3 Zrotation Xrotation Yrotation
                                            End Site
                                            {
                                                OFFSET 0 0 0
                                            }
                                        }
                                    }
                                }
                            }
                        }
                    }
                }
            }
        }
    }
    JOINT l_upleg_JNT
    {
        OFFSET 10.0614 -5.18575 -0.706233
        CHANNELS 3 Zrotation Xrotation Yrotation
        JOINT l_leg_JNT
        {
            OFFSET -0.348572 -45.5824 -0.819168
            CHANNELS 3 Zrotation Xrotation Yrotation
            JOINT l_foot_JNT
            {
                OFFSET 0.349145 -42.3325 -1.70849
                CHANNELS 3 Zrotation Xrotation Yrotation
                JOINT l_toebase_JNT
                {
                    OFFSET 0.0702709 -8.12666 12.8887
                    CHANNELS 3 Zrotation Xrotation Yrotation
                    End Site
                    {
                        OFFSET 0 0 0
                    }
                }
            }
        }
    }
    JOINT r_upleg_JNT
    {
        OFFSET -10.061 -5.18577 -0.706233
        CHANNELS 3 Zrotation Xrotation Yrotation
        JOINT r_leg_JNT
        {
            OFFSET 0.34858 -45.5824 -0.819165
            CHANNELS 3 Zrotation Xrotation Yrotation
            JOINT r_foot_JNT
            {
                OFFSET -0.34918 -42.3325 -1.70849
                CHANNELS 3 Zrotation Xrotation Yrotation
                JOINT r_toebase_JNT
                {
                    OFFSET -0.0702001 -8.12666 12.8887
                    CHANNELS 3 Zrotation Xrotation Yrotation
                    End Site
                    {
                        OFFSET 0 0 0
                    }
                }
            }
        }
    }
}
MOTION
Frames: 4
Frame Time: 0.05
6.35508 14.5217 0.876265 6.47128 30.5764 5.68139 -22.3463 -0.0333684 0.068528 8.53774e-07 -1.70755e-06 0 -5.33645 0.594203 -9.68864 -2.58924 21.5592 2.12992 -3.45903 14.7255 0.176939 -6.61674e-06 -2.4546e-06 0 33.9351 -0.793173 -3.08157 -21.7383 3.06657 -15.8723 -8.53774e-07 -2.13443e-07 0 4.10661 20.7048 -22.2077 -0 0 0 -9.44893 -0.0777423 0.940444 -14.8864 4.40713 0.576071 -19.1641 5.62449 0.94873 -12.7531 3.78888 0.420579 -17.4035 3.42334 0.526374 -22.393 4.35704 0.861386 -14.9126 2.94635 0.381548 -19.8514 -1.94491 -0.34264 -25.5295 -2.46778 -0.55953 -17.0137 -1.676 -0.240663 -21.7687 -4.24199 -0.815648 -28.0209 -5.36768 -1.34113 -18.6499 -3.65947 -0.602632 -6.61674e-06 -2.4546e-06 0 -8.98421 -3.01724 69.2308 8.41876 0.364417 4.94866 6.37105e-14 1.70755e-06 0 -4.10661 20.7048 22.2077 -0 0 0 11.5988 0.117013 1.15282 18.292 5.379 -0.864108 23.5628 6.8386 -1.42818 15.6666 4.63152 -0.635504 21.3765 4.16942 -0.784341 27.5149 5.27891 -1.29239 18.3141 3.59604 -0.577428 24.3733 -2.36314 0.512817 31.3483 -2.97807 0.833681 20.8883 -2.042 0.375344 26.7465 -5.14327 1.22332 34.4464 -6.45426 2.00225 22.9093 -4.45176 0.903083 112.439 -18.3367 136.15 -0.529895 42.3074 2.3504 9.74946 -18.9043 3.73939 3.41509e-06 -6.83019e-06 0 -160.513 -53.2187 -144.507 0.44635 7.91959 -0.818522 -2.4105 2.05172 0.532289 -5.08889e-14 6.83019e-06 0 
6.06863 14.8879 0.985835 6.57731 30.74 6.25087 -23.4609 -0.0218022 0 8.53774e-07 3.73526e-06 0 -4.55228 0.383887 -8.26295 -0.722379 23.5866 0.597414 -3.97486 12.2021 0.0969133 3.41509e-06 -1.81427e-06 0 33.3281 -1.45522 -5.34977 -21.0228 3.13306 -16.7691 -3.18055e-15 1.70755e-06 0 4.10661 20.7048 -22.2077 -0 0 0 -9.56199 -0.0796096 0.952847 -15.0653 4.45866 0.58684 -19.3949 5.68922 0.972361 -12.9061 3.83346 0.437006 -17.6123 3.46302 0.542484 -22.662 4.40645 0.881149 -15.0913 2.9808 0.395647 -20.0891 -1.96723 -0.34264 -25.8353 -2.49529 -0.571981 -17.2175 -1.69545 -0.256409 -22.0302 -4.29024 -0.83462 -28.3582 -5.42661 -1.37228 -18.8736 -3.70167 -0.616753 3.41509e-06 -1.81427e-06 0 -8.53674 -2.37473 66.174 8.361 0.495798 6.77487 1.70755e-06 -4.26887e-06 0 -4.10661 20.7048 22.2077 -0 0 0 11.5844 0.116724 1.15079 18.2692 5.37256 -0.865917 23.5333 6.83061 -1.42379 15.6471 4.62593 -0.639188 21.3499 4.1645 -0.783342 27.4807 5.27288 -1.29057 18.2913 3.59173 -0.58148 24.3431 -2.36039 0.509756 31.3094 -2.97475 0.835557 20.8624 -2.03958 0.377423 26.7132 -5.13737 1.22011 34.4034 -6.44725 1.99716 22.8808 -4.44654 0.900479 112.044 -19.5198 135.313 -0.552111 41.3909 1.81008 7.44924 -18.8925 2.89019 3.41509e-06 -3.41509e-06 0 -160.947 -52.5007 -143.642 0.454608 9.45716 -0.678394 -2.26726 2.30138 0.393664 -1.74757e-06 -1.30204e-14 0 
5.98329 14.9979 0.986509 6.6877 30.8184 7.06649 -24.6551 -0.0113247 0 2.13443e-07 3.41509e-06 0 -3.67038 0.197708 -6.55599 1.31587 25.926 -1.09859 -4.35119 9.31436 0 7.95139e-16 -1.06722e-07 0 32.6615 -2.46904 -8.91168 -20.7573 2.89223 -15.6964 -8.53774e-07 1.59028e-14 0 4.10661 20.7048 -22.2077 -0 0 0 -9.68391 -0.081648 0.963466 -15.2582 4.51417 0.603929 -19.6439 5.75892 1.00092 -13.0712 3.88149 0.445872 -17.8374 3.50575 0.553906 -22.9522 4.45962 0.905679 -15.2841 3.01791 0.403482 -20.3455 -1.99126 -0.356082 -26.1652 -2.52488 -0.58148 -17.4371 -1.71641 -0.256409 -22.3122 -4.34217 -0.856831 -28.722 -5.48995 -1.40664 -19.115 -3.74713 -0.634271 7.95139e-16 -1.06722e-07 0 -6.8414 -2.20289 62.86 8.35622 0.59449 8.12432 1.70755e-06 7.47052e-07 0 -4.10661 20.7048 22.2077 -0 0 0 11.5606 0.116247 1.14943 18.2314 5.36189 -0.860477 23.4845 6.81737 -1.41828 15.6148 4.61666 -0.635504 21.3058 4.15633 -0.782342 27.4238 5.26288 -1.28449 18.2536 3.5846 -0.577428 24.293 -2.35584 0.505128 31.2449 -2.96926 0.828029 20.8194 -2.03557 0.369035 26.658 -5.12758 1.21497 34.3321 -6.43563 1.99049 22.8335 -4.43789 0.895249 112.024 -20.7785 134.532 -0.582603 40.9792 1.1909 4.34913 -19.212 1.75519 1.70755e-06 -3.41509e-06 0 -160.565 -51.9288 -141.997 0.462375 10.1272 -0.511289 -1.95282 2.80388 0.279765 -0 -6.83352e-06 0 
6.01235 14.7049 0.861686 6.80247 30.7257 8.02986 -25.7884 -0.00375023 0.0559529 -0 -1.70755e-06 0 -2.80336 0.0676068 -4.70686 3.17943 28.2499 -2.67909 -4.41623 6.44584 0.125115 2.13443e-07 2.13443e-07 0 31.9338 -3.76986 -13.6297 -20.9114 2.29197 -12.3732 7.68396e-06 5.97642e-06 0 4.10661 20.7048 -22.2077 -0 0 0 -9.79937 -0.0836018 0.975575 -15.4409 4.56669 0.618021 -19.8797 5.82482 1.02335 -13.2276 3.92695 0.451107 -18.0506 3.54617 0.565097 -23.227 4.50986 0.927033 -15.4667 3.05302 0.41684 -20.5883 -2.01398 -0.369035 -26.4776 -2.55283 -0.601332 -17.6452 -1.73623 -0.276953 -22.5792 -4.39125 -0.877589 -29.0666 -5.54973 -1.43964 -19.3436 -3.7901 -0.645281 2.13443e-07 2.13443e-07 0 -5.97555 -1.54674 59.6557 7.88738 0.617846 8.9438 -0 0 0 -4.10661 20.7048 22.2077 -0 0 0 11.5214 0.115461 1.14533 18.1692 5.3443 -0.855917 23.404 6.79553 -1.40942 15.5616 4.60137 -0.626823 21.2333 4.14288 -0.776317 27.3302 5.2464 -1.2747 18.1915 3.57284 -0.571981 24.2104 -2.34832 0.503577 31.1387 -2.96019 0.826137 20.7487 -2.02897 0.373253 26.567 -5.11144 1.20916 34.2146 -6.41645 1.97707 22.7557 -4.42362 0.889108 115.874 -54.1976 56.421 -0.623048 39.8015 0.247081 3.85005 -15.6674 0.131221 -6.61674e-06 2.56132e-06 0 -159.719 -51.4262 -139.993 0.467782 10.2387 -0.389667 -1.60296 3.29776 0.185575 -1.54746e-06 1.38338e-05 0 
